<?xml version="1.0" standalone="no"?>
<!DOCTYPE svg PUBLIC "-//W3C//DTD SVG 1.1//EN" 
  "http://www.w3.org/Graphics/SVG/1.1/DTD/svg11.dtd">
<svg width="512" height="512" viewBox="0 0 512 512"
     xmlns="http://www.w3.org/2000/svg" version="1.1">
<desc>'', body.prm, (Blender 2.79 (sub 0))</desc>
<polygon stroke="black" stroke-width="1" fill="grey" fill-opacity="0.25" points="131.531,392.562 131.531,392.562 131.531,392.562 131.531,392.562 " />
<polygon stroke="black" stroke-width="1" fill="grey" fill-opacity="0.25" points="10.790,284.929 55.016,263.309 46.805,225.135 10.790,235.249 " />
<polygon stroke="black" stroke-width="1" fill="grey" fill-opacity="0.25" points="280.799,58.556 349.489,70.856 333.189,60.761 " />
<polygon stroke="black" stroke-width="1" fill="grey" fill-opacity="0.25" points="480.660,302.523 480.660,276.527 469.138,276.007 466.638,302.895 " />
<polygon stroke="black" stroke-width="1" fill="grey" fill-opacity="0.25" points="112.590,129.967 55.016,112.691 46.805,150.865 112.590,155.168 " />
<polygon stroke="black" stroke-width="1" fill="grey" fill-opacity="0.25" points="112.590,246.032 196.004,259.717 112.590,220.832 " />
<polygon stroke="black" stroke-width="1" fill="grey" fill-opacity="0.25" points="469.138,147.363 460.478,147.437 460.478,228.563 469.138,228.637 " />
<polygon stroke="black" stroke-width="1" fill="grey" fill-opacity="0.25" points="76.555,305.122 10.586,312.295 63.215,317.991 " />
<polygon stroke="black" stroke-width="1" fill="grey" fill-opacity="0.25" points="192.675,83.877 123.771,61.030 106.819,71.823 " />
<polygon stroke="black" stroke-width="1" fill="grey" fill-opacity="0.25" points="283.739,436.236 451.760,451.574 378.261,436.236 " />
<polygon stroke="black" stroke-width="1" fill="grey" fill-opacity="0.25" points="271.537,431.207 302.014,431.207 302.876,403.931 273.965,397.712 " />
<polygon stroke="black" stroke-width="1" fill="grey" fill-opacity="0.25" points="251.590,155.201 251.590,220.799 292.014,220.906 292.014,155.094 " />
<polygon stroke="black" stroke-width="1" fill="grey" fill-opacity="0.25" points="423.260,304.053 440.283,275.001 387.690,304.504 " />
<polygon stroke="black" stroke-width="1" fill="grey" fill-opacity="0.25" points="10.790,284.929 10.586,312.295 76.555,305.122 " />
<polygon stroke="black" stroke-width="1" fill="grey" fill-opacity="0.25" points="55.341,334.006 10.720,320.604 53.539,359.864 " />
<polygon stroke="black" stroke-width="1" fill="grey" fill-opacity="0.25" points="131.531,392.562 131.531,392.562 131.531,392.562 " />
<polygon stroke="black" stroke-width="1" fill="grey" fill-opacity="0.25" points="387.690,304.504 351.195,292.160 349.489,305.144 " />
<polygon stroke="black" stroke-width="1" fill="grey" fill-opacity="0.25" points="351.195,292.160 275.952,301.944 280.799,317.443 " />
<polygon stroke="black" stroke-width="1" fill="grey" fill-opacity="0.25" points="488.621,299.818 488.621,276.851 480.660,276.527 480.660,302.523 " />
<polygon stroke="black" stroke-width="1" fill="grey" fill-opacity="0.25" points="271.537,431.207 258.131,389.556 254.201,431.284 " />
<polygon stroke="black" stroke-width="1" fill="grey" fill-opacity="0.25" points="76.555,305.122 106.819,304.177 109.711,275.288 " />
<polygon stroke="black" stroke-width="1" fill="grey" fill-opacity="0.25" points="131.531,392.562 131.531,392.562 131.531,392.562 131.531,392.562 " />
<polygon stroke="black" stroke-width="1" fill="grey" fill-opacity="0.25" points="275.952,301.944 351.195,292.160 281.562,260.240 " />
<polygon stroke="black" stroke-width="1" fill="grey" fill-opacity="0.25" points="210.240,462.556 222.433,494.248 439.567,494.248 451.760,462.556 " />
<polygon stroke="black" stroke-width="1" fill="grey" fill-opacity="0.25" points="280.799,58.556 192.675,83.877 275.952,74.055 " />
<polygon stroke="black" stroke-width="1" fill="grey" fill-opacity="0.25" points="55.016,112.691 76.555,70.878 10.790,91.071 " />
<polygon stroke="black" stroke-width="1" fill="grey" fill-opacity="0.25" points="469.138,99.993 469.138,147.363 480.660,147.175 480.660,99.473 " />
<polygon stroke="black" stroke-width="1" fill="grey" fill-opacity="0.25" points="453.332,72.959 440.283,100.999 457.956,100.198 " />
<polygon stroke="black" stroke-width="1" fill="grey" fill-opacity="0.25" points="192.675,83.877 195.307,62.517 123.771,61.030 " />
<polygon stroke="black" stroke-width="1" fill="grey" fill-opacity="0.25" points="76.555,70.878 63.215,58.008 10.586,63.705 " />
<polygon stroke="black" stroke-width="1" fill="grey" fill-opacity="0.25" points="251.590,155.201 252.026,116.292 196.004,116.283 196.004,155.168 " />
<polygon stroke="black" stroke-width="1" fill="grey" fill-opacity="0.25" points="112.590,220.832 112.590,155.168 46.805,150.865 46.805,225.135 " />
<polygon stroke="black" stroke-width="1" fill="grey" fill-opacity="0.25" points="460.478,147.437 443.837,147.726 443.837,228.274 460.478,228.563 " />
<polygon stroke="black" stroke-width="1" fill="grey" fill-opacity="0.25" points="466.638,73.105 453.332,72.959 457.956,100.198 469.138,99.993 " />
<polygon stroke="black" stroke-width="1" fill="grey" fill-opacity="0.25" points="203.907,355.663 131.474,342.525 130.190,356.325 " />
<polygon stroke="black" stroke-width="1" fill="grey" fill-opacity="0.25" points="480.660,73.477 466.638,73.105 469.138,99.993 480.660,99.473 " />
<polygon stroke="black" stroke-width="1" fill="grey" fill-opacity="0.25" points="325.316,41.251 280.723,42.805 333.189,60.761 " />
<polygon stroke="black" stroke-width="1" fill="grey" fill-opacity="0.25" points="201.476,42.901 280.723,42.805 280.618,21.027 203.907,20.337 " />
<polygon stroke="black" stroke-width="1" fill="grey" fill-opacity="0.25" points="367.603,336.924 362.945,353.117 396.945,340.938 396.862,326.394 " />
<polygon stroke="black" stroke-width="1" fill="grey" fill-opacity="0.25" points="280.618,21.027 280.723,42.805 325.316,41.251 " />
<polygon stroke="black" stroke-width="1" fill="grey" fill-opacity="0.25" points="202.419,5.636 203.907,20.337 280.618,21.027 280.627,5.382 " />
<polygon stroke="black" stroke-width="1" fill="grey" fill-opacity="0.25" points="130.190,19.675 203.907,20.337 202.419,5.636 128.907,5.875 " />
<polygon stroke="black" stroke-width="1" fill="grey" fill-opacity="0.25" points="488.621,76.182 480.660,73.477 480.660,99.473 488.621,99.149 " />
<polygon stroke="black" stroke-width="1" fill="grey" fill-opacity="0.25" points="131.474,33.474 195.307,62.517 201.476,42.901 " />
<polygon stroke="black" stroke-width="1" fill="grey" fill-opacity="0.25" points="387.690,71.496 349.489,70.856 351.195,83.840 " />
<polygon stroke="black" stroke-width="1" fill="grey" fill-opacity="0.25" points="484.397,336.924 455.138,326.394 455.055,340.938 489.055,353.117 " />
<polygon stroke="black" stroke-width="1" fill="grey" fill-opacity="0.25" points="203.907,355.663 201.494,333.098 131.474,342.525 " />
<polygon stroke="black" stroke-width="1" fill="grey" fill-opacity="0.25" points="387.268,143.609 370.918,142.420 370.918,233.580 387.268,232.390 " />
<polygon stroke="black" stroke-width="1" fill="grey" fill-opacity="0.25" points="192.684,292.132 275.952,301.944 281.562,260.240 " />
<polygon stroke="black" stroke-width="1" fill="grey" fill-opacity="0.25" points="252.026,259.708 196.004,259.717 192.684,292.132 " />
<polygon stroke="black" stroke-width="1" fill="grey" fill-opacity="0.25" points="131.474,342.525 195.309,313.483 123.771,314.970 " />
<polygon stroke="black" stroke-width="1" fill="grey" fill-opacity="0.25" points="131.474,342.525 201.494,333.098 195.309,313.483 " />
<polygon stroke="black" stroke-width="1" fill="grey" fill-opacity="0.25" points="280.799,317.443 333.189,315.238 349.489,305.144 " />
<polygon stroke="black" stroke-width="1" fill="grey" fill-opacity="0.25" points="192.684,292.132 106.819,304.177 123.771,314.970 " />
<polygon stroke="black" stroke-width="1" fill="grey" fill-opacity="0.25" points="109.711,100.712 55.016,112.691 196.004,116.283 " />
<polygon stroke="black" stroke-width="1" fill="grey" fill-opacity="0.25" points="390.463,431.207 388.035,397.712 359.124,403.931 359.986,431.207 " />
<polygon stroke="black" stroke-width="1" fill="grey" fill-opacity="0.25" points="196.004,220.832 196.004,155.168 112.590,155.168 112.590,220.832 " />
<polygon stroke="black" stroke-width="1" fill="grey" fill-opacity="0.25" points="451.760,451.574 210.240,451.574 210.240,462.556 451.760,462.556 " />
<polygon stroke="black" stroke-width="1" fill="grey" fill-opacity="0.25" points="325.391,354.570 280.627,370.617 330.828,370.780 " />
<polygon stroke="black" stroke-width="1" fill="grey" fill-opacity="0.25" points="440.283,275.001 388.214,285.030 387.690,304.504 " />
<polygon stroke="black" stroke-width="1" fill="grey" fill-opacity="0.25" points="201.494,333.098 203.907,355.663 280.618,354.973 280.723,333.195 " />
<polygon stroke="black" stroke-width="1" fill="grey" fill-opacity="0.25" points="76.555,70.878 55.016,112.691 109.711,100.712 " />
<polygon stroke="black" stroke-width="1" fill="grey" fill-opacity="0.25" points="112.590,129.967 112.590,155.168 196.004,116.283 " />
<polygon stroke="black" stroke-width="1" fill="grey" fill-opacity="0.25" points="10.790,91.071 10.790,140.751 46.805,150.865 55.016,112.691 " />
<polygon stroke="black" stroke-width="1" fill="grey" fill-opacity="0.25" points="252.026,116.292 192.675,83.877 196.004,116.283 " />
<polygon stroke="black" stroke-width="1" fill="grey" fill-opacity="0.25" points="76.555,70.878 109.711,100.712 106.819,71.823 " />
<polygon stroke="black" stroke-width="1" fill="grey" fill-opacity="0.25" points="292.014,155.094 281.562,115.760 252.026,116.292 251.590,155.201 " />
<polygon stroke="black" stroke-width="1" fill="grey" fill-opacity="0.25" points="112.590,129.967 196.004,116.283 55.016,112.691 " />
<polygon stroke="black" stroke-width="1" fill="grey" fill-opacity="0.25" points="440.283,100.999 443.837,147.726 460.478,147.437 457.956,100.198 " />
<polygon stroke="black" stroke-width="1" fill="grey" fill-opacity="0.25" points="10.790,91.071 76.555,70.878 10.586,63.705 " />
<polygon stroke="black" stroke-width="1" fill="grey" fill-opacity="0.25" points="302.876,403.931 302.014,431.207 359.986,431.207 359.124,403.931 " />
<polygon stroke="black" stroke-width="1" fill="grey" fill-opacity="0.25" points="457.956,100.198 460.478,147.437 469.138,147.363 469.138,99.993 " />
<polygon stroke="black" stroke-width="1" fill="grey" fill-opacity="0.25" points="370.918,142.420 351.195,83.840 281.562,115.760 292.014,155.094 " />
<polygon stroke="black" stroke-width="1" fill="grey" fill-opacity="0.25" points="203.907,20.337 131.474,33.474 201.476,42.901 " />
<polygon stroke="black" stroke-width="1" fill="grey" fill-opacity="0.25" points="457.956,275.802 469.138,276.007 469.138,228.637 460.478,228.563 " />
<polygon stroke="black" stroke-width="1" fill="grey" fill-opacity="0.25" points="55.341,41.994 53.539,16.136 10.720,55.396 " />
<polygon stroke="black" stroke-width="1" fill="grey" fill-opacity="0.25" points="196.004,259.717 109.711,275.288 192.684,292.132 " />
<polygon stroke="black" stroke-width="1" fill="grey" fill-opacity="0.25" points="280.723,42.805 280.799,58.556 333.189,60.761 " />
<polygon stroke="black" stroke-width="1" fill="grey" fill-opacity="0.25" points="195.309,313.483 280.799,317.443 192.684,292.132 " />
<polygon stroke="black" stroke-width="1" fill="grey" fill-opacity="0.25" points="131.531,392.562 131.531,392.562 131.531,392.562 131.531,392.562 " />
<polygon stroke="black" stroke-width="1" fill="grey" fill-opacity="0.25" points="325.316,334.749 333.189,315.238 280.723,333.194 " />
<polygon stroke="black" stroke-width="1" fill="grey" fill-opacity="0.25" points="280.618,354.973 280.627,370.617 325.391,354.570 " />
<polygon stroke="black" stroke-width="1" fill="grey" fill-opacity="0.25" points="425.135,431.361 419.702,381.399 407.799,431.284 " />
<polygon stroke="black" stroke-width="1" fill="grey" fill-opacity="0.25" points="480.660,228.825 480.660,147.175 469.138,147.363 469.138,228.637 " />
<polygon stroke="black" stroke-width="1" fill="grey" fill-opacity="0.25" points="196.004,259.717 196.004,220.832 112.590,220.832 " />
<polygon stroke="black" stroke-width="1" fill="grey" fill-opacity="0.25" points="203.907,20.337 130.190,19.675 131.474,33.474 " />
<polygon stroke="black" stroke-width="1" fill="grey" fill-opacity="0.25" points="348.566,366.909 345.447,366.909 351.323,347.162 " />
<polygon stroke="black" stroke-width="1" fill="grey" fill-opacity="0.25" points="349.489,70.856 280.799,58.556 351.195,83.840 " />
<polygon stroke="black" stroke-width="1" fill="grey" fill-opacity="0.25" points="202.419,370.364 280.627,370.617 280.618,354.973 203.907,355.663 " />
<polygon stroke="black" stroke-width="1" fill="grey" fill-opacity="0.25" points="469.138,276.007 480.660,276.527 480.660,228.825 469.138,228.637 " />
<polygon stroke="black" stroke-width="1" fill="grey" fill-opacity="0.25" points="63.215,58.008 10.720,55.396 10.586,63.705 " />
<polygon stroke="black" stroke-width="1" fill="grey" fill-opacity="0.25" points="192.675,83.877 281.562,115.760 275.952,74.055 " />
<polygon stroke="black" stroke-width="1" fill="grey" fill-opacity="0.25" points="351.195,83.840 280.799,58.556 275.952,74.055 " />
<polygon stroke="black" stroke-width="1" fill="grey" fill-opacity="0.25" points="112.590,246.032 55.016,263.309 196.004,259.717 " />
<polygon stroke="black" stroke-width="1" fill="grey" fill-opacity="0.25" points="130.190,356.325 128.907,370.125 202.419,370.364 203.907,355.663 " />
<polygon stroke="black" stroke-width="1" fill="grey" fill-opacity="0.25" points="453.332,72.959 423.260,71.947 440.283,100.999 " />
<polygon stroke="black" stroke-width="1" fill="grey" fill-opacity="0.25" points="46.805,225.135 46.805,150.865 10.790,140.751 10.790,235.249 " />
<polygon stroke="black" stroke-width="1" fill="grey" fill-opacity="0.25" points="280.618,21.027 325.391,21.429 280.627,5.382 " />
<polygon stroke="black" stroke-width="1" fill="grey" fill-opacity="0.25" points="351.323,347.162 345.447,366.909 362.945,353.117 367.603,336.924 " />
<polygon stroke="black" stroke-width="1" fill="grey" fill-opacity="0.25" points="388.214,285.030 387.268,232.390 370.918,233.580 " />
<polygon stroke="black" stroke-width="1" fill="grey" fill-opacity="0.25" points="76.555,305.122 109.711,275.288 55.016,263.309 " />
<polygon stroke="black" stroke-width="1" fill="grey" fill-opacity="0.25" points="387.690,71.496 351.195,83.840 388.214,90.970 " />
<polygon stroke="black" stroke-width="1" fill="grey" fill-opacity="0.25" points="453.332,303.041 440.283,275.001 423.260,304.053 " />
<polygon stroke="black" stroke-width="1" fill="grey" fill-opacity="0.25" points="131.531,392.562 131.531,392.562 131.531,392.562 " />
<polygon stroke="black" stroke-width="1" fill="grey" fill-opacity="0.25" points="500.677,347.162 484.397,336.924 489.055,353.117 506.553,366.909 " />
<polygon stroke="black" stroke-width="1" fill="grey" fill-opacity="0.25" points="251.590,220.799 251.590,155.201 196.004,155.168 196.004,220.832 " />
<polygon stroke="black" stroke-width="1" fill="grey" fill-opacity="0.25" points="370.918,233.580 292.014,220.906 281.562,260.240 351.195,292.160 " />
<polygon stroke="black" stroke-width="1" fill="grey" fill-opacity="0.25" points="325.391,21.429 330.828,5.219 280.627,5.382 " />
<polygon stroke="black" stroke-width="1" fill="grey" fill-opacity="0.25" points="195.307,62.517 192.675,83.877 280.799,58.556 " />
<polygon stroke="black" stroke-width="1" fill="grey" fill-opacity="0.25" points="192.684,292.132 123.771,314.970 195.309,313.483 " />
<polygon stroke="black" stroke-width="1" fill="grey" fill-opacity="0.25" points="292.014,220.906 251.590,220.799 252.026,259.708 281.562,260.240 " />
<polygon stroke="black" stroke-width="1" fill="grey" fill-opacity="0.25" points="131.531,392.562 131.531,392.562 131.531,392.562 131.531,392.562 " />
<polygon stroke="black" stroke-width="1" fill="grey" fill-opacity="0.25" points="131.531,392.562 131.531,392.562 131.531,392.562 131.531,392.562 " />
<polygon stroke="black" stroke-width="1" fill="grey" fill-opacity="0.25" points="280.618,354.973 325.316,334.749 280.723,333.194 " />
<polygon stroke="black" stroke-width="1" fill="grey" fill-opacity="0.25" points="251.590,220.799 196.004,220.832 196.004,259.717 252.026,259.708 " />
<polygon stroke="black" stroke-width="1" fill="grey" fill-opacity="0.25" points="423.260,71.947 387.690,71.496 440.283,100.999 " />
<polygon stroke="black" stroke-width="1" fill="grey" fill-opacity="0.25" points="275.952,74.055 281.562,115.760 351.195,83.840 " />
<polygon stroke="black" stroke-width="1" fill="grey" fill-opacity="0.25" points="196.004,116.283 112.590,155.168 196.004,155.168 " />
<polygon stroke="black" stroke-width="1" fill="grey" fill-opacity="0.25" points="236.865,431.361 254.201,431.284 242.298,381.399 " />
<polygon stroke="black" stroke-width="1" fill="grey" fill-opacity="0.25" points="453.332,303.041 457.956,275.802 440.283,275.001 " />
<polygon stroke="black" stroke-width="1" fill="grey" fill-opacity="0.25" points="196.004,259.717 55.016,263.309 109.711,275.288 " />
<polygon stroke="black" stroke-width="1" fill="grey" fill-opacity="0.25" points="440.283,275.001 457.956,275.802 460.478,228.563 443.837,228.274 " />
<polygon stroke="black" stroke-width="1" fill="grey" fill-opacity="0.25" points="131.474,33.475 123.771,61.030 195.307,62.517 " />
<polygon stroke="black" stroke-width="1" fill="grey" fill-opacity="0.25" points="390.463,431.207 407.799,431.284 403.869,389.556 " />
<polygon stroke="black" stroke-width="1" fill="grey" fill-opacity="0.25" points="112.590,246.032 112.590,220.832 46.805,225.135 55.016,263.309 " />
<polygon stroke="black" stroke-width="1" fill="grey" fill-opacity="0.25" points="387.690,304.504 388.214,285.030 351.195,292.160 " />
<polygon stroke="black" stroke-width="1" fill="grey" fill-opacity="0.25" points="388.214,90.970 370.918,142.420 387.268,143.609 " />
<polygon stroke="black" stroke-width="1" fill="grey" fill-opacity="0.25" points="106.819,71.823 109.711,100.712 192.675,83.877 " />
<polygon stroke="black" stroke-width="1" fill="grey" fill-opacity="0.25" points="55.341,41.994 10.720,55.396 63.215,58.008 " />
<polygon stroke="black" stroke-width="1" fill="grey" fill-opacity="0.25" points="252.026,116.292 281.562,115.760 192.675,83.877 " />
<polygon stroke="black" stroke-width="1" fill="grey" fill-opacity="0.25" points="325.391,21.429 280.618,21.027 325.316,41.251 " />
<polygon stroke="black" stroke-width="1" fill="grey" fill-opacity="0.25" points="195.307,62.517 280.799,58.556 280.723,42.805 201.476,42.901 " />
<polygon stroke="black" stroke-width="1" fill="grey" fill-opacity="0.25" points="280.723,333.194 333.189,315.238 280.799,317.443 " />
<polygon stroke="black" stroke-width="1" fill="grey" fill-opacity="0.25" points="349.489,305.144 351.195,292.160 280.799,317.443 " />
<polygon stroke="black" stroke-width="1" fill="grey" fill-opacity="0.25" points="273.965,397.712 258.131,389.556 271.537,431.207 " />
<polygon stroke="black" stroke-width="1" fill="grey" fill-opacity="0.25" points="503.434,366.909 500.677,347.162 506.553,366.909 " />
<polygon stroke="black" stroke-width="1" fill="grey" fill-opacity="0.25" points="443.837,228.274 388.214,285.030 440.283,275.001 " />
<polygon stroke="black" stroke-width="1" fill="grey" fill-opacity="0.25" points="480.660,99.473 480.660,147.175 488.621,147.058 488.621,99.149 " />
<polygon stroke="black" stroke-width="1" fill="grey" fill-opacity="0.25" points="63.215,317.991 10.586,312.295 10.720,320.604 " />
<polygon stroke="black" stroke-width="1" fill="grey" fill-opacity="0.25" points="53.539,16.136 11.019,22.787 10.720,55.396 " />
<polygon stroke="black" stroke-width="1" fill="grey" fill-opacity="0.25" points="254.201,431.284 258.131,389.556 242.298,381.399 " />
<polygon stroke="black" stroke-width="1" fill="grey" fill-opacity="0.25" points="131.531,392.562 131.531,392.562 131.531,392.562 " />
<polygon stroke="black" stroke-width="1" fill="grey" fill-opacity="0.25" points="131.531,392.562 131.531,392.562 131.531,392.562 131.531,392.562 " />
<polygon stroke="black" stroke-width="1" fill="grey" fill-opacity="0.25" points="195.309,313.483 201.494,333.098 280.723,333.195 280.799,317.443 " />
<polygon stroke="black" stroke-width="1" fill="grey" fill-opacity="0.25" points="131.531,392.562 131.531,392.562 131.531,392.562 " />
<polygon stroke="black" stroke-width="1" fill="grey" fill-opacity="0.25" points="131.531,392.562 131.531,392.562 131.531,392.562 " />
<polygon stroke="black" stroke-width="1" fill="grey" fill-opacity="0.25" points="131.531,392.562 131.531,392.562 131.531,392.562 131.531,392.562 " />
<polygon stroke="black" stroke-width="1" fill="grey" fill-opacity="0.25" points="488.621,147.058 480.660,147.175 480.660,228.825 488.621,228.942 " />
<polygon stroke="black" stroke-width="1" fill="grey" fill-opacity="0.25" points="53.539,359.864 10.720,320.604 11.019,353.212 " />
<polygon stroke="black" stroke-width="1" fill="grey" fill-opacity="0.25" points="131.531,392.562 131.531,392.562 131.531,392.562 131.531,392.562 " />
<polygon stroke="black" stroke-width="1" fill="grey" fill-opacity="0.25" points="131.531,392.562 131.531,392.562 131.531,392.562 " />
<polygon stroke="black" stroke-width="1" fill="grey" fill-opacity="0.25" points="131.531,392.562 131.531,392.562 131.531,392.562 131.531,392.562 " />
<polygon stroke="black" stroke-width="1" fill="grey" fill-opacity="0.25" points="388.035,397.712 390.463,431.207 403.869,389.556 " />
<polygon stroke="black" stroke-width="1" fill="grey" fill-opacity="0.25" points="443.837,228.274 443.837,147.726 387.268,143.609 387.268,232.390 " />
<polygon stroke="black" stroke-width="1" fill="grey" fill-opacity="0.25" points="131.531,392.562 131.531,392.562 131.531,392.562 131.531,392.562 " />
<polygon stroke="black" stroke-width="1" fill="grey" fill-opacity="0.25" points="131.531,392.562 131.531,392.562 131.531,392.562 131.531,392.562 " />
<polygon stroke="black" stroke-width="1" fill="grey" fill-opacity="0.25" points="131.531,392.562 131.531,392.562 131.531,392.562 " />
<polygon stroke="black" stroke-width="1" fill="grey" fill-opacity="0.25" points="131.531,392.562 131.531,392.562 131.531,392.562 " />
<polygon stroke="black" stroke-width="1" fill="grey" fill-opacity="0.25" points="131.531,392.562 131.531,392.562 131.531,392.562 131.531,392.562 " />
<polygon stroke="black" stroke-width="1" fill="grey" fill-opacity="0.25" points="131.531,392.562 131.531,392.562 131.531,392.562 " />
<polygon stroke="black" stroke-width="1" fill="grey" fill-opacity="0.25" points="131.531,392.562 131.531,392.562 131.531,392.562 131.531,392.562 " />
<polygon stroke="black" stroke-width="1" fill="grey" fill-opacity="0.25" points="131.531,392.562 131.531,392.562 131.531,392.562 131.531,392.562 " />
<polygon stroke="black" stroke-width="1" fill="grey" fill-opacity="0.25" points="131.531,392.562 131.531,392.562 131.531,392.562 " />
<polygon stroke="black" stroke-width="1" fill="grey" fill-opacity="0.25" points="131.531,392.562 131.531,392.562 131.531,392.562 " />
<polygon stroke="black" stroke-width="1" fill="grey" fill-opacity="0.25" points="131.531,392.562 131.531,392.562 131.531,392.562 " />
<polygon stroke="black" stroke-width="1" fill="grey" fill-opacity="0.25" points="131.531,392.562 131.531,392.562 131.531,392.562 131.531,392.562 " />
<polygon stroke="black" stroke-width="1" fill="grey" fill-opacity="0.25" points="131.531,392.562 131.531,392.562 131.531,392.562 131.531,392.562 " />
<polygon stroke="black" stroke-width="1" fill="grey" fill-opacity="0.25" points="131.531,392.562 131.531,392.562 131.531,392.562 " />
<polygon stroke="black" stroke-width="1" fill="grey" fill-opacity="0.25" points="131.531,392.562 131.531,392.562 131.531,392.562 " />
<polygon stroke="black" stroke-width="1" fill="grey" fill-opacity="0.25" points="131.531,392.562 131.531,392.562 131.531,392.562 " />
<polygon stroke="black" stroke-width="1" fill="grey" fill-opacity="0.25" points="131.531,392.562 131.531,392.562 131.531,392.562 131.531,392.562 " />
<polygon stroke="black" stroke-width="1" fill="grey" fill-opacity="0.25" points="131.531,392.562 131.531,392.562 131.531,392.562 131.531,392.562 " />
<polygon stroke="black" stroke-width="1" fill="grey" fill-opacity="0.25" points="131.531,392.562 131.531,392.562 131.531,392.562 131.531,392.562 " />
<polygon stroke="black" stroke-width="1" fill="grey" fill-opacity="0.25" points="55.341,334.006 63.215,317.991 10.720,320.604 " />
<polygon stroke="black" stroke-width="1" fill="grey" fill-opacity="0.25" points="131.531,392.562 131.531,392.562 131.531,392.562 " />
<polygon stroke="black" stroke-width="1" fill="grey" fill-opacity="0.25" points="131.531,392.562 131.531,392.562 131.531,392.562 131.531,392.562 " />
<polygon stroke="black" stroke-width="1" fill="grey" fill-opacity="0.25" points="131.531,392.562 131.531,392.562 131.531,392.562 131.531,392.562 " />
<polygon stroke="black" stroke-width="1" fill="grey" fill-opacity="0.25" points="407.799,431.284 419.702,381.399 403.869,389.556 " />
<polygon stroke="black" stroke-width="1" fill="grey" fill-opacity="0.25" points="131.531,392.562 131.531,392.562 131.531,392.562 131.531,392.562 " />
<polygon stroke="black" stroke-width="1" fill="grey" fill-opacity="0.25" points="131.531,392.562 131.531,392.562 131.531,392.562 " />
<polygon stroke="black" stroke-width="1" fill="grey" fill-opacity="0.25" points="131.531,392.562 131.531,392.562 131.531,392.562 " />
<polygon stroke="black" stroke-width="1" fill="grey" fill-opacity="0.25" points="131.531,392.562 131.531,392.562 131.531,392.562 131.531,392.562 " />
<polygon stroke="black" stroke-width="1" fill="grey" fill-opacity="0.25" points="131.531,392.562 131.531,392.562 131.531,392.562 " />
<polygon stroke="black" stroke-width="1" fill="grey" fill-opacity="0.25" points="131.531,392.562 131.531,392.562 131.531,392.562 " />
<polygon stroke="black" stroke-width="1" fill="grey" fill-opacity="0.25" points="131.531,392.562 131.531,392.562 131.531,392.562 131.531,392.562 " />
<polygon stroke="black" stroke-width="1" fill="grey" fill-opacity="0.25" points="131.531,392.562 131.531,392.562 131.531,392.562 131.531,392.562 " />
<polygon stroke="black" stroke-width="1" fill="grey" fill-opacity="0.25" points="131.531,392.562 131.531,392.562 131.531,392.562 " />
<polygon stroke="black" stroke-width="1" fill="grey" fill-opacity="0.25" points="131.531,392.562 131.531,392.562 131.531,392.562 " />
<polygon stroke="black" stroke-width="1" fill="grey" fill-opacity="0.25" points="131.531,392.562 131.531,392.562 131.531,392.562 131.531,392.562 " />
<polygon stroke="black" stroke-width="1" fill="grey" fill-opacity="0.25" points="131.531,392.562 131.531,392.562 131.531,392.562 " />
<polygon stroke="black" stroke-width="1" fill="grey" fill-opacity="0.25" points="131.531,392.562 131.531,392.562 131.531,392.562 131.531,392.562 " />
<polygon stroke="black" stroke-width="1" fill="grey" fill-opacity="0.25" points="466.638,302.895 469.138,276.007 457.956,275.802 453.332,303.041 " />
<polygon stroke="black" stroke-width="1" fill="grey" fill-opacity="0.25" points="252.026,259.708 192.684,292.132 281.562,260.240 " />
<polygon stroke="black" stroke-width="1" fill="grey" fill-opacity="0.25" points="131.531,392.562 131.531,392.562 131.531,392.562 " />
<polygon stroke="black" stroke-width="1" fill="grey" fill-opacity="0.25" points="106.819,304.177 192.684,292.132 109.711,275.288 " />
<polygon stroke="black" stroke-width="1" fill="grey" fill-opacity="0.25" points="131.531,392.562 131.531,392.562 131.531,392.562 " />
<polygon stroke="black" stroke-width="1" fill="grey" fill-opacity="0.25" points="480.660,276.527 488.621,276.851 488.621,228.942 480.660,228.825 " />
<polygon stroke="black" stroke-width="1" fill="grey" fill-opacity="0.25" points="131.531,392.562 131.531,392.562 131.531,392.562 " />
<polygon stroke="black" stroke-width="1" fill="grey" fill-opacity="0.25" points="325.391,354.570 325.316,334.749 280.618,354.973 " />
<polygon stroke="black" stroke-width="1" fill="grey" fill-opacity="0.25" points="131.531,392.562 131.531,392.562 131.531,392.562 131.531,392.562 " />
<polygon stroke="black" stroke-width="1" fill="grey" fill-opacity="0.25" points="131.531,392.562 131.531,392.562 131.531,392.562 131.531,392.562 " />
<polygon stroke="black" stroke-width="1" fill="grey" fill-opacity="0.25" points="131.531,392.562 131.531,392.562 131.531,392.562 " />
<polygon stroke="black" stroke-width="1" fill="grey" fill-opacity="0.25" points="131.531,392.562 131.531,392.562 131.531,392.562 " />
<polygon stroke="black" stroke-width="1" fill="grey" fill-opacity="0.25" points="131.531,392.562 131.531,392.562 131.531,392.562 131.531,392.562 " />
<polygon stroke="black" stroke-width="1" fill="grey" fill-opacity="0.25" points="131.531,392.562 131.531,392.562 131.531,392.562 131.531,392.562 " />
<polygon stroke="black" stroke-width="1" fill="grey" fill-opacity="0.25" points="131.531,392.562 131.531,392.562 131.531,392.562 " />
<polygon stroke="black" stroke-width="1" fill="grey" fill-opacity="0.25" points="131.531,392.562 131.531,392.562 131.531,392.562 131.531,392.562 " />
<polygon stroke="black" stroke-width="1" fill="grey" fill-opacity="0.25" points="131.531,392.562 131.531,392.562 131.531,392.562 131.531,392.562 " />
<polygon stroke="black" stroke-width="1" fill="grey" fill-opacity="0.25" points="131.531,392.562 131.531,392.562 131.531,392.562 " />
<polygon stroke="black" stroke-width="1" fill="grey" fill-opacity="0.25" points="131.531,392.562 131.531,392.562 131.531,392.562 " />
<polygon stroke="black" stroke-width="1" fill="grey" fill-opacity="0.25" points="131.531,392.562 131.531,392.562 131.531,392.562 131.531,392.562 " />
<polygon stroke="black" stroke-width="1" fill="grey" fill-opacity="0.25" points="131.531,392.562 131.531,392.562 131.531,392.562 " />
<polygon stroke="black" stroke-width="1" fill="grey" fill-opacity="0.25" points="131.531,392.562 131.531,392.562 131.531,392.562 131.531,392.562 " />
<polygon stroke="black" stroke-width="1" fill="grey" fill-opacity="0.25" points="55.016,263.309 10.790,284.929 76.555,305.122 " />
<polygon stroke="black" stroke-width="1" fill="grey" fill-opacity="0.25" points="280.799,317.443 275.952,301.944 192.684,292.132 " />
<polygon stroke="black" stroke-width="1" fill="grey" fill-opacity="0.25" points="131.531,392.562 131.531,392.562 131.531,392.562 " />
<polygon stroke="black" stroke-width="1" fill="grey" fill-opacity="0.25" points="131.531,392.562 131.531,392.562 131.531,392.562 131.531,392.562 " />
<polygon stroke="black" stroke-width="1" fill="grey" fill-opacity="0.25" points="131.531,392.562 131.531,392.562 131.531,392.562 " />
<polygon stroke="black" stroke-width="1" fill="grey" fill-opacity="0.25" points="131.531,392.562 131.531,392.562 131.531,392.562 131.531,392.562 " />
<polygon stroke="black" stroke-width="1" fill="grey" fill-opacity="0.25" points="387.268,143.609 443.837,147.726 388.214,90.970 " />
<polygon stroke="black" stroke-width="1" fill="grey" fill-opacity="0.25" points="455.111,334.632 396.889,334.632 396.945,340.938 455.055,340.938 " />
<polygon stroke="black" stroke-width="1" fill="grey" fill-opacity="0.25" points="440.283,100.999 387.690,71.496 388.214,90.970 " />
<polygon stroke="black" stroke-width="1" fill="grey" fill-opacity="0.25" points="387.268,232.390 388.214,285.030 443.837,228.274 " />
<polygon stroke="black" stroke-width="1" fill="grey" fill-opacity="0.25" points="131.531,392.562 131.531,392.562 131.531,392.562 131.531,392.562 " />
<polygon stroke="black" stroke-width="1" fill="grey" fill-opacity="0.25" points="443.837,147.726 440.283,100.999 388.214,90.970 " />
<polygon stroke="black" stroke-width="1" fill="grey" fill-opacity="0.25" points="388.214,90.970 351.195,83.840 370.918,142.420 " />
<polygon stroke="black" stroke-width="1" fill="grey" fill-opacity="0.25" points="131.531,392.562 131.531,392.562 131.531,392.562 " />
<polygon stroke="black" stroke-width="1" fill="grey" fill-opacity="0.25" points="396.945,340.938 396.889,334.632 396.862,326.394 " />
<polygon stroke="black" stroke-width="1" fill="grey" fill-opacity="0.25" points="388.214,285.030 370.918,233.580 351.195,292.160 " />
<polygon stroke="black" stroke-width="1" fill="grey" fill-opacity="0.25" points="131.531,392.562 131.531,392.562 131.531,392.562 " />
<polygon stroke="black" stroke-width="1" fill="grey" fill-opacity="0.25" points="131.531,392.562 131.531,392.562 131.531,392.562 131.531,392.562 " />
<polygon stroke="black" stroke-width="1" fill="grey" fill-opacity="0.25" points="455.055,340.938 455.138,326.394 455.111,334.632 " />
<polygon stroke="black" stroke-width="1" fill="grey" fill-opacity="0.25" points="109.711,100.712 196.004,116.283 192.675,83.877 " />
<polygon stroke="black" stroke-width="1" fill="grey" fill-opacity="0.25" points="131.531,392.562 131.531,392.562 131.531,392.562 " />
<polygon stroke="black" stroke-width="1" fill="grey" fill-opacity="0.25" points="292.014,155.094 292.014,220.906 370.918,233.580 370.918,142.420 " />
<polygon stroke="black" stroke-width="1" fill="grey" fill-opacity="0.25" points="131.531,392.562 131.531,392.562 131.531,392.562 " />
<polygon stroke="black" stroke-width="1" fill="grey" fill-opacity="0.25" points="131.531,392.562 131.531,392.562 131.531,392.562 " />
<polygon stroke="black" stroke-width="1" fill="grey" fill-opacity="0.25" points="131.531,392.562 131.531,392.562 131.531,392.562 " />
<polygon stroke="black" stroke-width="1" fill="grey" fill-opacity="0.25" points="131.531,392.562 131.531,392.562 131.531,392.562 " />
<polygon stroke="black" stroke-width="1" fill="grey" fill-opacity="0.25" points="131.531,392.562 131.531,392.562 131.531,392.562 " />
<polygon stroke="black" stroke-width="1" fill="grey" fill-opacity="0.25" points="131.531,392.562 131.531,392.562 131.531,392.562 " />
<polygon stroke="black" stroke-width="1" fill="grey" fill-opacity="0.25" points="131.531,392.562 131.531,392.562 131.531,392.562 " />
<polygon stroke="black" stroke-width="1" fill="grey" fill-opacity="0.25" points="131.531,392.562 131.531,392.562 131.531,392.562 " />
<polygon stroke="black" stroke-width="1" fill="grey" fill-opacity="0.25" points="131.531,392.562 131.531,392.562 131.531,392.562 " />
<polygon stroke="black" stroke-width="1" fill="grey" fill-opacity="0.25" points="131.531,392.562 131.531,392.562 131.531,392.562 " />
<polygon stroke="black" stroke-width="1" fill="grey" fill-opacity="0.25" points="131.531,392.562 131.531,392.562 131.531,392.562 " />
<polygon stroke="black" stroke-width="1" fill="grey" fill-opacity="0.25" points="504.426,404.847 504.426,383.153 455.574,383.153 455.574,404.847 " />
<polygon stroke="black" stroke-width="1" fill="grey" fill-opacity="0.25" points="504.426,404.847 504.426,383.153 455.574,383.153 455.574,404.847 " />
<polygon stroke="black" stroke-width="1" fill="grey" fill-opacity="0.25" points="504.426,404.847 504.426,383.153 455.574,383.153 455.574,404.847 " />
<polygon stroke="black" stroke-width="1" fill="grey" fill-opacity="0.25" points="504.426,404.847 455.574,404.847 455.574,383.153 504.426,383.153 " />
<polygon stroke="black" stroke-width="1" fill="grey" fill-opacity="0.25" points="504.426,404.847 455.574,404.847 455.574,383.153 504.426,383.153 " />
<polygon stroke="black" stroke-width="1" fill="grey" fill-opacity="0.25" points="504.426,404.847 455.574,404.847 455.574,383.153 504.426,383.153 " />
<polygon stroke="black" stroke-width="1" fill="grey" fill-opacity="0.25" points="283.739,436.236 234.047,440.257 210.240,451.574 " />
<polygon stroke="black" stroke-width="1" fill="grey" fill-opacity="0.25" points="210.240,451.574 451.760,451.574 283.739,436.236 " />
<polygon stroke="black" stroke-width="1" fill="grey" fill-opacity="0.25" points="451.760,451.574 427.953,440.257 378.261,436.236 " />

</svg>
